<svg xmlns="http://www.w3.org/2000/svg" xml:space="preserve" width="512" height="512">
  <path d="M596.923 319.024c-24.72 11.721-49.143 23.187-73.424 34.947-5.323 2.578-9.876 2.35-15.145-.126-32.863-15.437-65.668-31.017-99.04-45.328-9.28-3.979-13.141-10.812-13.502-20.187-.288-7.489-.116-14.996-.098-22.495.017-7.02-1.385-13.097-8.477-16.71-3.66-1.864-3.302-11.288.39-12.857 6.262-2.66 7.84-7.848 7.998-13.74.23-8.66.045-17.33.111-25.995.085-11.085 2.895-15.085 13.093-19.376 25.33-10.658 50.776-21.048 75.623-32.82 1.602-.759 18.328-7.835 18.328-7.835l.466 14.486s-15.1 6.468-16.832 7.42c-4.009 2.201-8.526 3.463-12.897 6.744 10.225 5.076 19.88 9.854 29.521 14.659 17.298 8.62 34.62 17.19 51.849 25.948 2.991 1.52 5.38 1.469 8.363-.005 11.944-5.906 24.022-11.542 36.025-17.331 1.28-.617 2.93-.787 3.846-2.874-8.3-3.75-16.568-7.503-24.852-11.222-7.2-3.233-30.461-13.873-37.982-16.986l1-15.32c5.25 2.35 23.562 10.963 28.814 13.302 15.82 7.045 31.605 14.174 47.483 21.086 8.865 3.859 12.904 10.463 12.748 20.014-.136 8.33-.16 16.668.058 24.995.163 6.217 1.646 11.78 8.169 14.787 3.622 1.67 3.867 11.153.282 12.96-6.934 3.494-8.248 9.62-8.44 16.3-.223 7.827-.039 15.664-.098 23.496-.072 9.585-4.272 16.525-13.144 20.55-6.672 3.028-13.263 6.236-20.236 9.513m-45.341-91.862c-8.1 3.886-16.143 7.9-24.332 11.59-2.997 1.35-4.246 3.074-4.233 6.41.112 29.135.072 58.27.12 87.406.002 1.57-.527 3.368 1.269 4.75.842-.277 1.81-.488 2.683-.9 27.857-13.109 55.671-26.31 83.587-39.292 4.79-2.228 5.892-5.947 5.936-10.48.075-7.825.054-15.65.036-23.475-.015-6.334 1.441-12.253 5.323-17.324 1.62-2.115 1.518-3.684.01-5.742-3.537-4.824-5.003-10.294-5.445-16.298-.658-8.937-.217-17.88-.47-27.755-21.66 10.455-42.73 20.626-64.485 31.11m-72.125.062c-1.825-.463-3.333-2.245-5.907-1.283-.03 11.987.807 25.222-.227 36.877-1.574-.557-1.437-.856-2.307-1.294-7.139-3.588-17.958-8.692-25.155-12.158 0 0-.08-1.96-.08-4.921 0-9.369-.295-18.512-.065-27.837.09-3.688-1.12-5.743-4.55-7.233-8.55-3.713-16.93-7.817-25.409-11.698-1.583-.724-3.094-2.068-5.637-1.028 0 7.29.106 14.76-.03 22.227-.14 7.751-1.267 15.278-6.197 21.697-.93 1.211-1.739 2.455-.553 4.04 7.597 10.152 6.851 21.898 6.316 33.58-.176 3.833-.165 7.622.355 11.448.412 3.036 1.943 4.727 4.65 5.865 24.87 10.464 49.135 22.268 73.69 33.43 6.439 2.926 12.869 5.871 19.202 8.762 1.405-1.683 1.202-3.058 1.203-4.35.01-29.323-.044-58.645.058-87.966.012-3.364-1.313-5.146-4.241-6.471-8.191-3.706-16.295-7.606-25.116-11.687m6.87-15.058c-2.388 2.429.459 2.6 1.528 3.121 8.052 3.93 16.16 7.744 24.265 11.562 1.48.698 2.998 1.725 4.72 1.008 8.374-3.482 16.466-7.522 24.922-12.236-1.54-1.064-2.4-1.815-3.388-2.317-7.841-3.987-15.74-7.862-23.546-11.917-2.642-1.373-4.957-1.222-7.531.12-6.77 3.528-13.619 6.905-20.97 10.66M475.47 182.05c-1.635-.82-3.373-1.486-4.889-2.487-9.114-6.018-18.152-7.59-28.077-1.316-5.05 3.193-10.997 4.971-17.506 7.81 6.175 2.946 11.47 5.01 16.288 7.877 7.699 4.582 14.826 5.147 22.528-.187 4.183-2.896 9.233-4.532 13.874-6.775.97-.468 2.342-.636 2.19-2.504-1.181-.664-2.472-1.389-4.408-2.418" style="fill:#2d2d2d;fill-opacity:1" transform="translate(-482.384 -26.09)scale(1.43924)"/>
  <path d="M503.93 63.957c6.028-9.13 11.863-17.957 18.346-27.765l54.233 81.885h-33.496c-.407 25.269-.97 65.205-.955 69.097-9.66-4.526-38.44-18.516-40.577-19.75 0 0 .026-1.196.064-4.47.147-12.66.062-32.51-.07-44.461 0 0-.02-.179-6.466-.174-8.468.007-16.936.002-25.404.002-.503.002-1.137-.018-1.723-.028 11.733-17.595 24.121-36.437 36.047-54.336" style="fill:#075ca1;fill-opacity:1" transform="translate(-482.384 -26.09)scale(1.43924)"/>
  <path d="M271.531 458.038c-.88-1.061-1.407-131.116-.543-134.276.854-3.126 2.933-4.85 9.306-7.715 3-1.35 31.969-15.244 64.374-30.876 32.404-15.631 58.976-28.421 59.047-28.421.072 0 .269 8.719.438 19.375.436 27.45 1.405 32.719 7.854 42.697 2.599 4.02 2.634 5.797.181 9.18-2.213 3.051-4.799 8.469-5.966 12.498-.745 2.574-.918 6.376-1.214 26.75-.205 14.13-.555 24.37-.864 25.28-1.745 5.139-3.961 7.035-13.24 11.324-9.016 4.168-49.31 23.094-87.462 41.08-16.12 7.599-29.76 13.816-30.314 13.816s-1.272-.32-1.597-.712M240 455.934c-3.987-1.811-25.925-11.91-48.75-22.439-40.804-18.824-57.378-26.315-70.75-31.977-8.33-3.527-10.146-4.732-11.607-7.699-1.133-2.299-1.143-2.502-1.18-23.069-.035-19.407-.108-21.082-1.137-25.886-1.516-7.081-3.826-12.626-7.546-18.114-.84-1.237-1.527-2.592-1.528-3.01-.001-.42 1.24-2.67 2.758-5 3.22-4.947 5.303-10.043 6.536-15.99.725-3.495.932-7.936 1.168-25l.286-20.75 1.75-.14c1.38-.109 5.35 1.538 18.75 7.777 9.35 4.354 18.973 8.785 21.384 9.847 8.07 3.556 9.106 5.605 8.819 17.442-.095 3.89-.123 14.747-.063 24.125l.11 17.051 3.625 1.644c1.994.904 10.91 5.221 19.813 9.594 8.904 4.373 16.298 7.84 16.432 7.706.687-.687 1.072-17.165.79-33.862l-.318-18.816 1.052-.334c.703-.224 2.759.402 6.204 1.889 9.062 3.91 38.327 17.706 39.83 18.775 3.277 2.334 3.072-2.389 3.072 70.729 0 66.835-.05 68.845-1.705 68.812-.3-.006-3.807-1.493-7.795-3.305M244.985 295.463a8461 8461 0 0 0-20.859-9.875c-4.193-1.973-7.624-3.853-7.625-4.177-.003-1.162 2.985-2.879 18.637-10.711 13.894-6.952 16.19-7.95 18.285-7.95 2.114 0 4.52 1.07 20.362 9.063 20.883 10.535 23.074 11.797 22.124 12.733-1.034 1.018-21.466 11.34-28.55 14.422-3.516 1.53-7.01 2.782-7.765 2.782s-7.33-2.829-14.609-6.287M161.195 256.553c-1.955-.633-6.23-2.619-9.5-4.413s-9.372-4.809-13.56-6.7-7.62-3.57-7.625-3.727 2.746-1.377 6.115-2.709c8.577-3.39 12.89-5.384 18.375-8.498 2.613-1.484 6.55-3.302 8.75-4.04 9.066-3.046 19.39-1.194 29.778 5.342 1.497.942 5.366 3.041 8.597 4.665s5.872 3.195 5.867 3.49c-.018 1.253-1.24 1.98-9.59 5.705-4.834 2.157-10.846 5.22-13.359 6.805-6.352 4.008-10.12 5.259-15.793 5.244-3.31-.009-5.44-.316-8.055-1.164" style="fill:#ffab75;fill-opacity:1;stroke-width:.5"/>
  <path d="M262.427 242.578c-31.47-15.728-58.425-29.102-59.901-29.718l-2.684-1.122 2.575-1.75c1.417-.962 5.057-2.897 8.09-4.3 12.138-5.615 27.28-12.294 27.87-12.294.344 0 .625 4.924.625 10.942v10.942l15.38 7.51c23.166 11.313 43.047 20.81 43.56 20.81.251 0 .457-9.249.457-20.553V202.49l1.591.498c2.038.638 84.05 37.626 84.562 38.138.856.857-2.516 2.692-21.453 11.678-10.89 5.167-23.896 11.414-28.904 13.882-6.41 3.16-9.911 4.488-11.829 4.488-2.171 0-14.315-5.794-59.94-28.597" style="fill:#ffab75;fill-opacity:1;stroke-width:.707107"/>
</svg>
